<svg xmlns="http://www.w3.org/2000/svg" viewBox="0 0 128 128">
  <path fill="#D26383" d="M117.5 33.5l.3-.2c-.6-1.1-1.5-2.1-2.4-2.6L67.1 2.9c-.8-.5-1.9-.7-3.1-.7-1.2 0-2.3.3-3.1.7l-48 27.7c-1.7 1-2.9 3-2.9 5.2v55.7c0 1.1.2 2.3.9 3.4l-.2.1c.5.8 1.2 1.5 1.9 2.1 1.4 1.3 3.2 2.1 5.2 2.1.8 0 1.6-.2 2.3-.5l47.1-27.9c.6-.3 1.2-.5 1.9-.5.7 0 1.3.2 1.9.5l47.1 27.9c.7.3 1.5.5 2.3.5 2 0 3.8-.8 5.2-2.1.7-.6 1.4-1.3 1.9-2.1l-.2-.1c.6-1.1.9-2.3.9-3.4V38.7c.1-2.2-1.1-4.2-2.8-5.2zM82 99.6c0 .6-.4 1-1 1H47c-.6 0-1-.4-1-1V28.4c0-.6.4-1 1-1h34c.6 0 1 .4 1 1v71.2z"/>
  <path fill="#fff" d="M81 28.4c0-.6-.4-1-1-1H47c-.6 0-1 .4-1 1v71.2c0 .6.4 1 1 1h33c.6 0 1-.4 1-1V28.4z"/>
  <path fill="#D26383" d="M64 88.4c-13.5 0-24.5-11-24.5-24.5S50.5 39.4 64 39.4s24.5 11 24.5 24.5S77.5 88.4 64 88.4zm0-45.9c-11.8 0-21.5 9.6-21.5 21.5S52.2 85.4 64 85.4s21.5-9.6 21.5-21.5S75.8 42.5 64 42.5z"/>
  <path fill="#D26383" d="M95.5 63.9c0-13.5-11-24.5-24.5-24.5s-24.5 11-24.5 24.5 11 24.5 24.5 24.5 24.5-11 24.5-24.5z"/>
</svg> 