<svg xmlns="http://www.w3.org/2000/svg" viewBox="0 0 128 128">
  <path fill="#E44D26" d="M19.569 27.138l4.643 51.501L50.47 84.443l26.197-5.804L81.851 27.138z"/>
  <path fill="#F16529" d="M64 77.809l-13.333 2.953-7.471-82.076h40.808z"/>
  <path fill="#EBEBEB" d="M64 38.148H36.564l1.036 11.61H64zm0 17.826H39.982l1.036 11.61H64z"/>
  <path fill="#fff" d="M64 67.148l-.049.011-9.275-2.498-.593-6.648H35.326l1.163 12.823 21.526 5.978.049-.013z"/>
  <path fill="#EBEBEB" d="M64 38.148H36.564l1.036 11.61H64zm0 17.826H39.982l1.036 11.61H64z"/>
  <path fill="#fff" d="M64 67.148l-.049.011-9.275-2.498-.593-6.648H35.326l1.163 12.823 21.526 5.978.049-.013z"/>
</svg> 