<svg xmlns="http://www.w3.org/2000/svg" viewBox="0 0 128 128">
  <path fill="#0074BD" d="M47.617 98.12s-4.767 2.774 7.234 4.823c-7.68-2.266-13.694-4.514-19.12-7.23C17.807 88.66 12.346 77.35 9.23 63.32c-3.828-18.64-2.23-32.338 4.33-45.64C17.48 6.532 26.25 2.35 34.1 3.23c-1.406.14-2.88.42-4.336.82-6.693 2.012-12.208 6.4-15.12 12.508-4.38 7.186-4.82 16.996-1.44 26.136 3.378 9.14 9.57 17.508 17.14 24.074 5.052 4.37 11.347 8.2 18.273 11.475z"/>
  <path fill="#EA2D2E" d="M67.53 93.12c7.755 0 14.01-1.155 15.397-2.82 2.336-2.793 1.72-9.027 1.72-9.027l-13.234 6.748c-3.72 1.884-8.534 3.23-15.234 3.23-17.41 0-31.234-9.654-31.234-28.508 0-18.853 13.824-28.507 31.234-28.507 17.41 0 31.234 9.654 31.234 28.507 0 18.853-13.824 28.508-31.234 28.508zM67.53 9.23c-17.41 0-31.234 9.654-31.234 28.507 0 18.853 13.824 28.507 31.234 28.507 17.41 0 31.234-9.654 31.234-28.507C98.764 18.884 84.94 9.23 67.53 9.23z"/>
  <path fill="#0074BD" d="M119.197 85.7c-1.72 5.186-4.767 9.406-8.534 12.508-7.68 6.4-18.534 10.053-31.234 10.053-17.41 0-31.234-9.654-31.234-28.507 0-18.853 13.824-28.507 31.234-28.507 12.7 0 23.554 3.653 31.234 10.053 3.767 3.102 6.814 7.322 8.534 12.508-1.72-5.186-4.767-9.406-8.534-12.508-7.68-6.4-18.534-10.053-31.234-10.053-17.41 0-31.234 9.654-31.234 28.507 0 18.853 13.824 28.507 31.234 28.507 12.7 0 23.554-3.653 31.234-10.053 3.767-3.102 6.814-7.322 8.534-12.508z"/>
</svg> 