<svg xmlns="http://www.w3.org/2000/svg" viewBox="0 0 128 128">
  <path fill="#F7DF1E" d="M1.408 1.408h125.184v125.185H1.408z"/>
  <path d="M116.347 46.736c-.917-5.711-4.641-10.508-9.201-12.986-5.498-2.912-11.632-3.015-18.2-.114-6.571 2.902-11.83 8.227-14.036 14.921-2.207 6.694-.869 13.27 3.783 18.979 4.653 5.708 12.305 9.609 19.954 9.609 6.48 0 11.734-1.979 15.688-5.624l-6.649-7.951c-2.305 2.12-5.23 3.467-8.754 3.467-4.221 0-7.659-1.387-10.299-3.467-2.305-1.735-4.087-4.028-5.36-6.88-.88-2.12-1.254-4.196-1.254-6.217 0-1.735.374-3.304 1.254-4.705.88-1.4 2.041-2.64 3.504-3.72 1.464-1.08 3.318-1.62 5.562-1.62 2.559 0 4.474.616 5.746 1.848l8.754-10.651L116.347 46.736zM73.88 105.952c-4.221 0-7.659-1.387-10.299-3.467-2.305-1.735-4.087-4.028-5.36-6.88-.88-2.12-1.254-4.196-1.254-6.217 0-1.735.374-3.304 1.254-4.705.88-1.4 2.041-2.64 3.504-3.72 1.464-1.08 3.318-1.62 5.562-1.62 2.559 0 4.474.616 5.746 1.848l8.754-10.651-6.649-7.951c-2.305 2.12-5.23 3.467-8.754 3.467-4.221 0-7.659-1.387-10.299-3.467-2.305-1.735-4.087-4.028-5.36-6.88-.88-2.12-1.254-4.196-1.254-6.217 0-1.735.374-3.304 1.254-4.705.88-1.4 2.041-2.64 3.504-3.72 1.464-1.08 3.318-1.62 5.562-1.62 2.559 0 4.474.616 5.746 1.848l8.754-10.651L73.88 105.952z"/>
</svg> 