<svg xmlns="http://www.w3.org/2000/svg" viewBox="0 0 128 128">
  <path fill="#336791" d="M64 6.4c-31.7 0-57.6 25.9-57.6 57.6S32.3 121.6 64 121.6s57.6-25.9 57.6-57.6S95.7 6.4 64 6.4z"/>
  <path fill="#fff" d="M64 12.8c-28.3 0-51.2 23-51.2 51.2S35.7 115.2 64 115.2s51.2-23 51.2-51.2S92.3 12.8 64 12.8z"/>
  <path fill="#336791" d="M64 19.2c-24.5 0-44.8 20.3-44.8 44.8S39.5 108.8 64 108.8s44.8-20.3 44.8-44.8S88.5 19.2 64 19.2z"/>
  <path fill="#fff" d="M64 25.6c-21.3 0-38.4 17.1-38.4 38.4S42.7 102.4 64 102.4s38.4-17.1 38.4-38.4S85.3 25.6 64 25.6z"/>
  <path fill="#336791" d="M64 32c-18.1 0-32.8 14.7-32.8 32.8S45.9 97.6 64 97.6s32.8-14.7 32.8-32.8S82.1 32 64 32z"/>
  <path fill="#fff" d="M64 38.4c-14.9 0-26.4 11.5-26.4 26.4S49.1 91.2 64 91.2s26.4-11.5 26.4-26.4S78.9 38.4 64 38.4z"/>
  <path fill="#336791" d="M64 44.8c-11.7 0-20 8.3-20 20s8.3 20 20 20 20-8.3 20-20-8.3-20-20-20z"/>
</svg> 